<svg id="Layer_1" data-name="Layer 1" xmlns="http://www.w3.org/2000/svg" viewBox="0 0 36 47.34"><defs><style>.cls-1{fill:#1658a5;}</style></defs><title>ico-user</title><path class="cls-1" d="M41.21,40.65c5.26,0,9.53-5.18,9.53-11.58S49.34,17.5,41.21,17.5s-9.53,5.18-9.53,11.58S36,40.65,41.21,40.65Zm0,0" transform="translate(-23.21 -17.5)"/><path class="cls-1" d="M59.19,57.86C59,46.72,57.56,43.55,46.43,41.54c0,0-1.57,2-5.22,2s-5.22-2-5.22-2c-11,2-12.55,5.11-12.75,16,0,.89,0,.93,0,.83,0,.19,0,.55,0,1.17,0,0,2.65,5.34,18,5.34s18-5.34,18-5.34c0-.4,0-.68,0-.87a7.66,7.66,0,0,1,0-.77Zm0,0" transform="translate(-23.21 -17.5)"/></svg>