<svg id="Layer_1" data-name="Layer 1" xmlns="http://www.w3.org/2000/svg" viewBox="0 0 52 46.38"><defs><style>.cls-1{fill:#1658a5;}</style></defs><title>ico-case</title><path class="cls-1" d="M64.56,26.52H62.33a2.11,2.11,0,0,0-2-1.41H56.13a2.11,2.11,0,0,0-2,1.41H51.21V20.19a2.11,2.11,0,0,0-2.11-2.11H32.23a2.11,2.11,0,0,0-2.11,2.11v6.32H27.19a2.11,2.11,0,0,0-2-1.41H21a2.11,2.11,0,0,0-2,1.41H16.77a2.11,2.11,0,0,0-2.11,2.11V40.57H34.34V38.46a2.11,2.11,0,0,1,2.11-2.11h8.43A2.11,2.11,0,0,1,47,38.46v2.11H66.67V28.62A2.11,2.11,0,0,0,64.56,26.52ZM47,26.52H34.34V22.3H47Z" transform="translate(-14.67 -18.08)"/><path class="cls-1" d="M62.45,44.79H47v2.11A2.11,2.11,0,0,1,44.88,49H36.45a2.11,2.11,0,0,1-2.11-2.11V44.79H14.67V62.35a2.11,2.11,0,0,0,2.11,2.11H64.56a2.11,2.11,0,0,0,2.11-2.11V44.79H62.45Z" transform="translate(-14.67 -18.08)"/></svg>