<svg id="Layer_1" data-name="Layer 1" xmlns="http://www.w3.org/2000/svg" viewBox="0 0 64.1 53.95"><defs><style>.cls-1{fill:#1658a5;}</style></defs><title>ico-people</title><path class="cls-1" d="M47.51,24.33A11.65,11.65,0,0,1,52.93,33a9.4,9.4,0,1,0-5.42-8.66ZM41.35,43.58a9.4,9.4,0,1,0-9.4-9.4,9.4,9.4,0,0,0,9.4,9.4Zm4,.64h-8a12.05,12.05,0,0,0-12,12V66l0,.15.67.21A54.83,54.83,0,0,0,42.39,69c8.85,0,14-2.52,14.29-2.68l.62-.32h.07V56.26a12,12,0,0,0-12-12Zm15.55-9.7H53a11.58,11.58,0,0,1-3.58,8.07A14.3,14.3,0,0,1,59.62,56.28v3c7.82-.29,12.32-2.5,12.62-2.65l.63-.32h.07V46.55a12.05,12.05,0,0,0-12-12Zm-36-.64a9.34,9.34,0,0,0,5-1.45A11.65,11.65,0,0,1,34.23,25c0-.17,0-.35,0-.53a9.4,9.4,0,1,0-9.4,9.4Zm8.45,8.71a11.6,11.6,0,0,1-3.58-8c-.29,0-.59,0-.88,0h-8a12,12,0,0,0-12,12v9.76l0,.15.67.21a56.43,56.43,0,0,0,13.56,2.55V56.28A14.3,14.3,0,0,1,33.3,42.59Zm0,0" transform="translate(-8.83 -15.07)"/></svg>